<?xml version="1.0" encoding="UTF-8" standalone="no"?>
<!DOCTYPE svg PUBLIC "-//W3C//DTD SVG 1.1//EN"
 "http://www.w3.org/Graphics/SVG/1.1/DTD/svg11.dtd">
<!-- Generated by graphviz version 9.0.0 (20230911.1827)
 -->
<!-- Title: common/include/aifregs.h Pages: 1 -->
<svg width="494pt" height="160pt"
 viewBox="0.00 0.00 494.25 160.25" xmlns="http://www.w3.org/2000/svg" xmlns:xlink="http://www.w3.org/1999/xlink">
<g id="graph0" class="graph" transform="scale(1 1) rotate(0) translate(4 156.25)">
<title>common/include/aifregs.h</title>
<!-- Node1 -->
<g id="Node000001" class="node">
<title>Node1</title>
<g id="a_Node000001"><a xlink:title=" ">
<polygon fill="#999999" stroke="#666666" points="335.5,-152.25 208.5,-152.25 208.5,-133 335.5,-133 335.5,-152.25"/>
<text text-anchor="middle" x="272" y="-138.75" font-family="Helvetica,sans-Serif" font-size="10.00">common/include/aifregs.h</text>
</a>
</g>
</g>
<!-- Node2 -->
<g id="Node000002" class="node">
<title>Node2</title>
<g id="a_Node000002"><a xlink:href="atahw_8h.html" target="_top" xlink:title=" ">
<polygon fill="white" stroke="#666666" points="199,-91.38 75,-91.38 75,-72.12 199,-72.12 199,-91.38"/>
<text text-anchor="middle" x="137" y="-77.88" font-family="Helvetica,sans-Serif" font-size="10.00">common/include/atahw.h</text>
</a>
</g>
</g>
<!-- Node1&#45;&gt;Node2 -->
<g id="edge1_Node000001_Node000002" class="edge">
<title>Node1&#45;&gt;Node2</title>
<g id="a_edge1_Node000001_Node000002"><a xlink:title=" ">
<path fill="none" stroke="#63b8ff" d="M240.92,-128.07C215.33,-116.91 179.78,-101.41 157.6,-91.73"/>
<polygon fill="#63b8ff" stroke="#63b8ff" points="239.25,-131.16 249.81,-131.95 242.05,-124.74 239.25,-131.16"/>
</a>
</g>
</g>
<!-- Node5 -->
<g id="Node000005" class="node">
<title>Node5</title>
<g id="a_Node000005"><a xlink:href="aifdev9_8h_source.html" target="_top" xlink:title=" ">
<polygon fill="white" stroke="#666666" points="327.25,-97 216.75,-97 216.75,-66.5 327.25,-66.5 327.25,-97"/>
<text text-anchor="start" x="224.75" y="-83.5" font-family="Helvetica,sans-Serif" font-size="10.00">iop/dev9/dev9/include</text>
<text text-anchor="middle" x="272" y="-72.25" font-family="Helvetica,sans-Serif" font-size="10.00">/aifdev9.h</text>
</a>
</g>
</g>
<!-- Node1&#45;&gt;Node5 -->
<g id="edge4_Node000001_Node000005" class="edge">
<title>Node1&#45;&gt;Node5</title>
<g id="a_edge4_Node000001_Node000005"><a xlink:title=" ">
<path fill="none" stroke="#63b8ff" d="M272,-121.42C272,-113.49 272,-104.56 272,-97.28"/>
<polygon fill="#63b8ff" stroke="#63b8ff" points="268.5,-121.17 272,-131.17 275.5,-121.17 268.5,-121.17"/>
</a>
</g>
</g>
<!-- Node6 -->
<g id="Node000006" class="node">
<title>Node6</title>
<g id="a_Node000006"><a xlink:href="ps2dev9_8c.html" target="_top" xlink:title=" ">
<polygon fill="white" stroke="#666666" points="486.25,-91.38 345.75,-91.38 345.75,-72.12 486.25,-72.12 486.25,-91.38"/>
<text text-anchor="middle" x="416" y="-77.88" font-family="Helvetica,sans-Serif" font-size="10.00">iop/dev9/dev9/src/ps2dev9.c</text>
</a>
</g>
</g>
<!-- Node1&#45;&gt;Node6 -->
<g id="edge5_Node000001_Node000006" class="edge">
<title>Node1&#45;&gt;Node6</title>
<g id="a_edge5_Node000001_Node000006"><a xlink:title=" ">
<path fill="none" stroke="#63b8ff" d="M304.79,-128.22C332.11,-117.05 370.26,-101.45 394.03,-91.73"/>
<polygon fill="#63b8ff" stroke="#63b8ff" points="303.52,-124.96 295.59,-131.98 306.17,-131.44 303.52,-124.96"/>
</a>
</g>
</g>
<!-- Node3 -->
<g id="Node000003" class="node">
<title>Node3</title>
<g id="a_Node000003"><a xlink:href="ps2atad_8c.html" target="_top" xlink:title=" ">
<polygon fill="white" stroke="#666666" points="136,-24.88 0,-24.88 0,-5.63 136,-5.63 136,-24.88"/>
<text text-anchor="middle" x="68" y="-11.38" font-family="Helvetica,sans-Serif" font-size="10.00">iop/dev9/atad/src/ps2atad.c</text>
</a>
</g>
</g>
<!-- Node2&#45;&gt;Node3 -->
<g id="edge2_Node000002_Node000003" class="edge">
<title>Node2&#45;&gt;Node3</title>
<g id="a_edge2_Node000002_Node000003"><a xlink:title=" ">
<path fill="none" stroke="#63b8ff" d="M119.03,-63.95C105.75,-51.54 88.19,-35.12 77.51,-25.14"/>
<polygon fill="#63b8ff" stroke="#63b8ff" points="116.6,-66.48 126.3,-70.75 121.38,-61.36 116.6,-66.48"/>
</a>
</g>
</g>
<!-- Node4 -->
<g id="Node000004" class="node">
<title>Node4</title>
<g id="a_Node000004"><a xlink:href="hdproatad_8c_source.html" target="_top" xlink:title=" ">
<polygon fill="white" stroke="#666666" points="257.88,-30.5 154.12,-30.5 154.12,0 257.88,0 257.88,-30.5"/>
<text text-anchor="start" x="162.12" y="-17" font-family="Helvetica,sans-Serif" font-size="10.00">iop/dev9/hdpro_atad</text>
<text text-anchor="middle" x="206" y="-5.75" font-family="Helvetica,sans-Serif" font-size="10.00">/src/hdproatad.c</text>
</a>
</g>
</g>
<!-- Node2&#45;&gt;Node4 -->
<g id="edge3_Node000002_Node000004" class="edge">
<title>Node2&#45;&gt;Node4</title>
<g id="a_edge3_Node000002_Node000004"><a xlink:title=" ">
<path fill="none" stroke="#63b8ff" d="M154.99,-63.93C165.98,-53.66 179.88,-40.67 190.39,-30.84"/>
<polygon fill="#63b8ff" stroke="#63b8ff" points="152.62,-61.36 147.7,-70.75 157.4,-66.48 152.62,-61.36"/>
</a>
</g>
</g>
</g>
</svg>
