<?xml version="1.0" encoding="UTF-8" standalone="no"?>
<!DOCTYPE svg PUBLIC "-//W3C//DTD SVG 1.1//EN"
 "http://www.w3.org/Graphics/SVG/1.1/DTD/svg11.dtd">
<!-- Generated by graphviz version 9.0.0 (20230911.1827)
 -->
<!-- Title: common/include/hdd&#45;ioctl.h Pages: 1 -->
<!--zoomable 238 -->

<svg id="main" version="1.1" xmlns="http://www.w3.org/2000/svg" xmlns:xlink="http://www.w3.org/1999/xlink" xml:space="preserve" onload="init(evt)">
<style type="text/css"><![CDATA[
.node, .edge {opacity: 0.7;}
.node.selected, .edge.selected {opacity: 1;}
.edge:hover path { stroke: red; }
.edge:hover polygon { stroke: red; fill: red; }
]]></style>

<defs>
  <circle id="rim" cx="0" cy="0" r="7"/>
  <circle id="rim2" cx="0" cy="0" r="3.5"/>
  <g id="zoomPlus">
    <use xlink:href="#rim" fill="#404040"><set attributeName="fill" to="#808080" begin="zoomplus.mouseover" end="zoomplus.mouseout"/></use>
    <path d="M-4,0h8M0,-4v8" fill="none" stroke="white" stroke-width="1.5" pointer-events="none"/>
  </g>
  <g id="zoomMin">
    <use xlink:href="#rim" fill="#404040"><set attributeName="fill" to="#808080" begin="zoomminus.mouseover" end="zoomminus.mouseout"/></use>
    <path d="M-4,0h8" fill="none" stroke="white" stroke-width="1.5" pointer-events="none"/>
  </g>
  <g id="arrowUp" transform="translate(30 24)">
    <use xlink:href="#rim"/>
    <path pointer-events="none" fill="none" stroke="white" stroke-width="1.5" d="M0,-3.0v7 M-2.5,-0.5L0,-3.0L2.5,-0.5"/>
  </g>
  <g id="arrowRight" transform="rotate(90) translate(36 -43)">
    <use xlink:href="#rim"/>
    <path pointer-events="none" fill="none" stroke="white" stroke-width="1.5" d="M0,-3.0v7 M-2.5,-0.5L0,-3.0L2.5,-0.5"/>
  </g>
  <g id="arrowDown" transform="rotate(180) translate(-30 -48)">
    <use xlink:href="#rim"/>
    <path pointer-events="none" fill="none" stroke="white" stroke-width="1.5" d="M0,-3.0v7 M-2.5,-0.5L0,-3.0L2.5,-0.5"/>
  </g>
  <g id="arrowLeft" transform="rotate(270) translate(-36 17)">
    <use xlink:href="#rim"/>
    <path pointer-events="none" fill="none" stroke="white" stroke-width="1.5" d="M0,-3.0v7 M-2.5,-0.5L0,-3.0L2.5,-0.5"/>
  </g>
  <g id="resetDef">
    <use xlink:href="#rim2" fill="#404040"><set attributeName="fill" to="#808080" begin="reset.mouseover" end="reset.mouseout"/></use>
  </g>
</defs>
<script type="application/ecmascript">
var viewWidth = 3580;
var viewHeight = 238;
var sectionId = 'dynsection-1';
</script>
<script type="application/ecmascript" xlink:href="svg.min.js"/>
<svg id="graph" class="graph">
<g id="viewport">
<title>common/include/hdd&#45;ioctl.h</title>
<!-- Node1 -->
<g id="Node000001" class="node">
<title>Node1</title>
<g id="a_Node000001"><a xlink:title=" ">
<polygon fill="#999999" stroke="#666666" points="2365.12,-230 2259.12,-230 2259.12,-199.5 2365.12,-199.5 2365.12,-230"/>
<text text-anchor="start" x="2267.12" y="-216.5" font-family="Helvetica,sans-Serif" font-size="10.00">common/include/hdd</text>
<text text-anchor="middle" x="2312.12" y="-205.25" font-family="Helvetica,sans-Serif" font-size="10.00">&#45;ioctl.h</text>
</a>
</g>
</g>
<!-- Node2 -->
<g id="Node000002" class="node">
<title>Node2</title>
<g id="a_Node000002"><a xlink:href="libhdd_8h.html" target="_top" xlink:title=" ">
<polygon fill="white" stroke="#666666" points="354.88,-163.5 259.38,-163.5 259.38,-133 354.88,-133 354.88,-163.5"/>
<text text-anchor="start" x="267.38" y="-150" font-family="Helvetica,sans-Serif" font-size="10.00">ee/rpc/hdd/include</text>
<text text-anchor="middle" x="307.12" y="-138.75" font-family="Helvetica,sans-Serif" font-size="10.00">/libhdd.h</text>
</a>
</g>
</g>
<!-- Node1&#45;&gt;Node2 -->
<g id="edge1_Node000001_Node000002" class="edge">
<title>Node1&#45;&gt;Node2</title>
<g id="a_edge1_Node000001_Node000002"><a xlink:title=" ">
<path fill="none" stroke="#63b8ff" d="M2247.5,-211.95C2027.51,-205.78 1287.48,-184.69 676.12,-163.5 560.96,-159.51 425.6,-154.1 355.18,-151.23"/>
<polygon fill="#63b8ff" stroke="#63b8ff" points="2247.2,-215.44 2257.29,-212.22 2247.39,-208.44 2247.2,-215.44"/>
</a>
</g>
</g>
<!-- Node4 -->
<g id="Node000004" class="node">
<title>Node4</title>
<g id="a_Node000004"><a xlink:href="dev9_8h.html" target="_top" xlink:title=" ">
<polygon fill="white" stroke="#666666" points="795.38,-163.5 684.88,-163.5 684.88,-133 795.38,-133 795.38,-163.5"/>
<text text-anchor="start" x="692.88" y="-150" font-family="Helvetica,sans-Serif" font-size="10.00">iop/dev9/dev9/include</text>
<text text-anchor="middle" x="740.12" y="-138.75" font-family="Helvetica,sans-Serif" font-size="10.00">/dev9.h</text>
</a>
</g>
</g>
<!-- Node1&#45;&gt;Node4 -->
<g id="edge3_Node000001_Node000004" class="edge">
<title>Node1&#45;&gt;Node4</title>
<g id="a_edge3_Node000001_Node000004"><a xlink:title=" ">
<path fill="none" stroke="#63b8ff" d="M2247.53,-211.1C1989.72,-200.52 1036.7,-161.42 795.75,-151.53"/>
<polygon fill="#63b8ff" stroke="#63b8ff" points="2247.27,-214.59 2257.41,-211.5 2247.56,-207.6 2247.27,-214.59"/>
</a>
</g>
</g>
<!-- Node15 -->
<g id="Node000015" class="node">
<title>Node15</title>
<g id="a_Node000015"><a xlink:href="hdd_8c_source.html" target="_top" xlink:title=" ">
<polygon fill="white" stroke="#666666" points="1390.62,-91.38 1281.62,-91.38 1281.62,-72.12 1390.62,-72.12 1390.62,-91.38"/>
<text text-anchor="middle" x="1336.12" y="-77.88" font-family="Helvetica,sans-Serif" font-size="10.00">iop/hdd/apa/src/hdd.c</text>
</a>
</g>
</g>
<!-- Node1&#45;&gt;Node15 -->
<g id="edge14_Node000001_Node000015" class="edge">
<title>Node1&#45;&gt;Node15</title>
<g id="a_edge14_Node000001_Node000015"><a xlink:title=" ">
<path fill="none" stroke="#63b8ff" d="M2247.71,-213.87C2122.86,-213.07 1839.68,-206.2 1606.12,-163.5 1513,-146.47 1406.39,-109.05 1359.89,-91.79"/>
<polygon fill="#63b8ff" stroke="#63b8ff" points="2247.4,-217.37 2257.42,-213.92 2247.44,-210.37 2247.4,-217.37"/>
</a>
</g>
</g>
<!-- Node16 -->
<g id="Node000016" class="node">
<title>Node16</title>
<g id="a_Node000016"><a xlink:href="hdd__fio_8c_source.html" target="_top" xlink:title=" ">
<polygon fill="white" stroke="#666666" points="1509.88,-97 1408.38,-97 1408.38,-66.5 1509.88,-66.5 1509.88,-97"/>
<text text-anchor="start" x="1416.38" y="-83.5" font-family="Helvetica,sans-Serif" font-size="10.00">iop/hdd/apa/src/hdd</text>
<text text-anchor="middle" x="1459.12" y="-72.25" font-family="Helvetica,sans-Serif" font-size="10.00">_fio.c</text>
</a>
</g>
</g>
<!-- Node1&#45;&gt;Node16 -->
<g id="edge15_Node000001_Node000016" class="edge">
<title>Node1&#45;&gt;Node16</title>
<g id="a_edge15_Node000001_Node000016"><a xlink:title=" ">
<path fill="none" stroke="#63b8ff" d="M2247.62,-212.49C2139.49,-209.42 1915.2,-198.96 1729.12,-163.5 1645.5,-147.56 1550.82,-115.99 1498.74,-97.39"/>
<polygon fill="#63b8ff" stroke="#63b8ff" points="2247.37,-215.98 2257.46,-212.76 2247.56,-208.99 2247.37,-215.98"/>
</a>
</g>
</g>
<!-- Node17 -->
<g id="Node000017" class="node">
<title>Node17</title>
<g id="a_Node000017"><a xlink:href="bitmap__fsck_8c_source.html" target="_top" xlink:title=" ">
<polygon fill="white" stroke="#666666" points="2534.12,-163.5 2416.12,-163.5 2416.12,-133 2534.12,-133 2534.12,-163.5"/>
<text text-anchor="start" x="2424.12" y="-150" font-family="Helvetica,sans-Serif" font-size="10.00">iop/hdd/fsck/src/bitmap</text>
<text text-anchor="middle" x="2475.12" y="-138.75" font-family="Helvetica,sans-Serif" font-size="10.00">_fsck.c</text>
</a>
</g>
</g>
<!-- Node1&#45;&gt;Node17 -->
<g id="edge16_Node000001_Node000017" class="edge">
<title>Node1&#45;&gt;Node17</title>
<g id="a_edge16_Node000001_Node000017"><a xlink:title=" ">
<path fill="none" stroke="#63b8ff" d="M2359.81,-194.88C2384.75,-185.01 2414.82,-173.11 2438,-163.94"/>
<polygon fill="#63b8ff" stroke="#63b8ff" points="2358.53,-191.62 2350.52,-198.56 2361.11,-198.13 2358.53,-191.62"/>
</a>
</g>
</g>
<!-- Node18 -->
<g id="Node000018" class="node">
<title>Node18</title>
<g id="a_Node000018"><a xlink:href="fsck_8c_source.html" target="_top" xlink:title=" ">
<polygon fill="white" stroke="#666666" points="2667.62,-157.88 2552.62,-157.88 2552.62,-138.62 2667.62,-138.62 2667.62,-157.88"/>
<text text-anchor="middle" x="2610.12" y="-144.38" font-family="Helvetica,sans-Serif" font-size="10.00">iop/hdd/fsck/src/fsck.c</text>
</a>
</g>
</g>
<!-- Node1&#45;&gt;Node18 -->
<g id="edge17_Node000001_Node000018" class="edge">
<title>Node1&#45;&gt;Node18</title>
<g id="a_edge17_Node000001_Node000018"><a xlink:title=" ">
<path fill="none" stroke="#63b8ff" d="M2376.31,-199.86C2434.46,-187.27 2518.47,-169.09 2568.36,-158.29"/>
<polygon fill="#63b8ff" stroke="#63b8ff" points="2375.91,-196.36 2366.88,-201.9 2377.39,-203.2 2375.91,-196.36"/>
</a>
</g>
</g>
<!-- Node19 -->
<g id="Node000019" class="node">
<title>Node19</title>
<g id="a_Node000019"><a xlink:href="fssk_8c_source.html" target="_top" xlink:title=" ">
<polygon fill="white" stroke="#666666" points="2800.62,-157.88 2685.62,-157.88 2685.62,-138.62 2800.62,-138.62 2800.62,-157.88"/>
<text text-anchor="middle" x="2743.12" y="-144.38" font-family="Helvetica,sans-Serif" font-size="10.00">iop/hdd/fssk/src/fssk.c</text>
</a>
</g>
</g>
<!-- Node1&#45;&gt;Node19 -->
<g id="edge18_Node000001_Node000019" class="edge">
<title>Node1&#45;&gt;Node19</title>
<g id="a_edge18_Node000001_Node000019"><a xlink:title=" ">
<path fill="none" stroke="#63b8ff" d="M2376.82,-206.35C2449.96,-197.63 2572.49,-181.97 2677.12,-163.5 2685.67,-161.99 2694.79,-160.17 2703.43,-158.33"/>
<polygon fill="#63b8ff" stroke="#63b8ff" points="2376.54,-202.86 2367.02,-207.51 2377.36,-209.81 2376.54,-202.86"/>
</a>
</g>
</g>
<!-- Node20 -->
<g id="Node000020" class="node">
<title>Node20</title>
<g id="a_Node000020"><a xlink:href="hdck_8c_source.html" target="_top" xlink:title=" ">
<polygon fill="white" stroke="#666666" points="1647.88,-91.38 1528.38,-91.38 1528.38,-72.12 1647.88,-72.12 1647.88,-91.38"/>
<text text-anchor="middle" x="1588.12" y="-77.88" font-family="Helvetica,sans-Serif" font-size="10.00">iop/hdd/hdck/src/hdck.c</text>
</a>
</g>
</g>
<!-- Node1&#45;&gt;Node20 -->
<g id="edge19_Node000001_Node000020" class="edge">
<title>Node1&#45;&gt;Node20</title>
<g id="a_edge19_Node000001_Node000020"><a xlink:title=" ">
<path fill="none" stroke="#63b8ff" d="M2247.53,-210.74C2157.16,-205.64 1988.21,-192.83 1847.12,-163.5 1758.35,-145.05 1656.64,-108.69 1611.64,-91.78"/>
<polygon fill="#63b8ff" stroke="#63b8ff" points="2247.27,-214.23 2257.44,-211.29 2247.65,-207.25 2247.27,-214.23"/>
</a>
</g>
</g>
<!-- Node21 -->
<g id="Node000021" class="node">
<title>Node21</title>
<g id="a_Node000021"><a xlink:href="hdl_8c_source.html" target="_top" xlink:title=" ">
<polygon fill="white" stroke="#666666" points="1776.75,-91.38 1665.5,-91.38 1665.5,-72.12 1776.75,-72.12 1776.75,-91.38"/>
<text text-anchor="middle" x="1721.12" y="-77.88" font-family="Helvetica,sans-Serif" font-size="10.00">iop/hdd/hdsk/src/hdl.c</text>
</a>
</g>
</g>
<!-- Node1&#45;&gt;Node21 -->
<g id="edge20_Node000001_Node000021" class="edge">
<title>Node1&#45;&gt;Node21</title>
<g id="a_edge20_Node000001_Node000021"><a xlink:title=" ">
<path fill="none" stroke="#63b8ff" d="M2247.89,-209.18C2173.65,-202.95 2048.2,-189.45 1943.12,-163.5 1866.68,-144.62 1780.03,-108.64 1741.48,-91.83"/>
<polygon fill="#63b8ff" stroke="#63b8ff" points="2247.15,-212.63 2257.4,-209.96 2247.72,-205.66 2247.15,-212.63"/>
</a>
</g>
</g>
<!-- Node22 -->
<g id="Node000022" class="node">
<title>Node22</title>
<g id="a_Node000022"><a xlink:href="hdsk_8c_source.html" target="_top" xlink:title=" ">
<polygon fill="white" stroke="#666666" points="1913.88,-91.38 1794.38,-91.38 1794.38,-72.12 1913.88,-72.12 1913.88,-91.38"/>
<text text-anchor="middle" x="1854.12" y="-77.88" font-family="Helvetica,sans-Serif" font-size="10.00">iop/hdd/hdsk/src/hdsk.c</text>
</a>
</g>
</g>
<!-- Node1&#45;&gt;Node22 -->
<g id="edge21_Node000001_Node000022" class="edge">
<title>Node1&#45;&gt;Node22</title>
<g id="a_edge21_Node000001_Node000022"><a xlink:title=" ">
<path fill="none" stroke="#63b8ff" d="M2247.28,-208.37C2186.21,-202.01 2092.75,-188.9 2015.12,-163.5 1958.06,-144.83 1896.03,-108.74 1868.58,-91.87"/>
<polygon fill="#63b8ff" stroke="#63b8ff" points="2246.87,-211.85 2257.17,-209.37 2247.57,-204.89 2246.87,-211.85"/>
</a>
</g>
</g>
<!-- Node23 -->
<g id="Node000023" class="node">
<title>Node23</title>
<g id="a_Node000023"><a xlink:href="sim_8c_source.html" target="_top" xlink:title=" ">
<polygon fill="white" stroke="#666666" points="2046.25,-91.38 1932,-91.38 1932,-72.12 2046.25,-72.12 2046.25,-91.38"/>
<text text-anchor="middle" x="1989.12" y="-77.88" font-family="Helvetica,sans-Serif" font-size="10.00">iop/hdd/hdsk/src/sim.c</text>
</a>
</g>
</g>
<!-- Node1&#45;&gt;Node23 -->
<g id="edge22_Node000001_Node000023" class="edge">
<title>Node1&#45;&gt;Node23</title>
<g id="a_edge22_Node000001_Node000023"><a xlink:title=" ">
<path fill="none" stroke="#63b8ff" d="M2247.48,-213.85C2191.66,-211.16 2110.82,-200.35 2051.12,-163.5 2022.1,-145.58 2001.6,-108.78 1993.27,-91.76"/>
<polygon fill="#63b8ff" stroke="#63b8ff" points="2247,-217.34 2257.13,-214.24 2247.28,-210.34 2247,-217.34"/>
</a>
</g>
</g>
<!-- Node24 -->
<g id="Node000024" class="node">
<title>Node24</title>
<g id="a_Node000024"><a xlink:href="libapa_8h_source.html" target="_top" xlink:title=" ">
<polygon fill="white" stroke="#666666" points="2170,-163.5 2060.25,-163.5 2060.25,-133 2170,-133 2170,-163.5"/>
<text text-anchor="start" x="2068.25" y="-150" font-family="Helvetica,sans-Serif" font-size="10.00">iop/hdd/libapa/include</text>
<text text-anchor="middle" x="2115.12" y="-138.75" font-family="Helvetica,sans-Serif" font-size="10.00">/libapa.h</text>
</a>
</g>
</g>
<!-- Node1&#45;&gt;Node24 -->
<g id="edge23_Node000001_Node000024" class="edge">
<title>Node1&#45;&gt;Node24</title>
<g id="a_edge23_Node000001_Node000024"><a xlink:title=" ">
<path fill="none" stroke="#63b8ff" d="M2256.51,-195.54C2225.99,-185.55 2188.64,-173.32 2159.99,-163.94"/>
<polygon fill="#63b8ff" stroke="#63b8ff" points="2255.39,-198.86 2265.98,-198.64 2257.57,-192.21 2255.39,-198.86"/>
</a>
</g>
</g>
<!-- Node28 -->
<g id="Node000028" class="node">
<title>Node28</title>
<g id="a_Node000028"><a xlink:href="apa_8c_source.html" target="_top" xlink:title=" ">
<polygon fill="white" stroke="#666666" points="2536.38,-97 2443.88,-97 2443.88,-66.5 2536.38,-66.5 2536.38,-97"/>
<text text-anchor="start" x="2451.88" y="-83.5" font-family="Helvetica,sans-Serif" font-size="10.00">iop/hdd/libapa/src</text>
<text text-anchor="middle" x="2490.12" y="-72.25" font-family="Helvetica,sans-Serif" font-size="10.00">/apa.c</text>
</a>
</g>
</g>
<!-- Node1&#45;&gt;Node28 -->
<g id="edge39_Node000001_Node000028" class="edge">
<title>Node1&#45;&gt;Node28</title>
<g id="a_edge39_Node000001_Node000028"><a xlink:title=" ">
<path fill="none" stroke="#63b8ff" d="M2264.15,-194.08C2233.42,-178.67 2202.65,-156.05 2222.12,-133 2253.11,-96.34 2388.18,-107.03 2435.12,-97 2437.83,-96.42 2440.59,-95.8 2443.38,-95.15"/>
<polygon fill="#63b8ff" stroke="#63b8ff" points="2262.6,-197.22 2273.14,-198.37 2265.62,-190.9 2262.6,-197.22"/>
</a>
</g>
</g>
<!-- Node29 -->
<g id="Node000029" class="node">
<title>Node29</title>
<g id="a_Node000029"><a xlink:href="libapa_2src_2cache_8c_source.html" target="_top" xlink:title=" ">
<polygon fill="white" stroke="#666666" points="2647.38,-97 2554.88,-97 2554.88,-66.5 2647.38,-66.5 2647.38,-97"/>
<text text-anchor="start" x="2562.88" y="-83.5" font-family="Helvetica,sans-Serif" font-size="10.00">iop/hdd/libapa/src</text>
<text text-anchor="middle" x="2601.12" y="-72.25" font-family="Helvetica,sans-Serif" font-size="10.00">/cache.c</text>
</a>
</g>
</g>
<!-- Node1&#45;&gt;Node29 -->
<g id="edge40_Node000001_Node000029" class="edge">
<title>Node1&#45;&gt;Node29</title>
<g id="a_edge40_Node000001_Node000029"><a xlink:title=" ">
<path fill="none" stroke="#63b8ff" d="M2282.53,-191.84C2263.12,-174.86 2244.06,-151.22 2260.12,-133 2302.34,-85.12 2482.41,-108.89 2545.12,-97 2548.18,-96.42 2551.32,-95.77 2554.47,-95.08"/>
<polygon fill="#63b8ff" stroke="#63b8ff" points="2280.25,-194.49 2290.18,-198.17 2284.71,-189.1 2280.25,-194.49"/>
</a>
</g>
</g>
<!-- Node30 -->
<g id="Node000030" class="node">
<title>Node30</title>
<g id="a_Node000030"><a xlink:href="free_8c_source.html" target="_top" xlink:title=" ">
<polygon fill="white" stroke="#666666" points="2758.38,-97 2665.88,-97 2665.88,-66.5 2758.38,-66.5 2758.38,-97"/>
<text text-anchor="start" x="2673.88" y="-83.5" font-family="Helvetica,sans-Serif" font-size="10.00">iop/hdd/libapa/src</text>
<text text-anchor="middle" x="2712.12" y="-72.25" font-family="Helvetica,sans-Serif" font-size="10.00">/free.c</text>
</a>
</g>
</g>
<!-- Node1&#45;&gt;Node30 -->
<g id="edge41_Node000001_Node000030" class="edge">
<title>Node1&#45;&gt;Node30</title>
<g id="a_edge41_Node000001_Node000030"><a xlink:title=" ">
<path fill="none" stroke="#63b8ff" d="M2298.28,-189.05C2290.4,-171.33 2284.53,-148.03 2298.12,-133 2351.76,-73.7 2577.39,-110.9 2656.12,-97 2659.19,-96.46 2662.33,-95.84 2665.49,-95.17"/>
<polygon fill="#63b8ff" stroke="#63b8ff" points="2295.07,-190.45 2302.62,-197.88 2301.35,-187.36 2295.07,-190.45"/>
</a>
</g>
</g>
<!-- Node31 -->
<g id="Node000031" class="node">
<title>Node31</title>
<g id="a_Node000031"><a xlink:href="libapa_2src_2journal_8c_source.html" target="_top" xlink:title=" ">
<polygon fill="white" stroke="#666666" points="2869.38,-97 2776.88,-97 2776.88,-66.5 2869.38,-66.5 2869.38,-97"/>
<text text-anchor="start" x="2784.88" y="-83.5" font-family="Helvetica,sans-Serif" font-size="10.00">iop/hdd/libapa/src</text>
<text text-anchor="middle" x="2823.12" y="-72.25" font-family="Helvetica,sans-Serif" font-size="10.00">/journal.c</text>
</a>
</g>
</g>
<!-- Node1&#45;&gt;Node31 -->
<g id="edge42_Node000001_Node000031" class="edge">
<title>Node1&#45;&gt;Node31</title>
<g id="a_edge42_Node000001_Node000031"><a xlink:title=" ">
<path fill="none" stroke="#63b8ff" d="M2312.58,-187.79C2314.38,-169.53 2320,-146.11 2336.12,-133 2410.7,-72.37 2672.34,-112.91 2767.12,-97 2770.19,-96.49 2773.34,-95.89 2776.5,-95.23"/>
<polygon fill="#63b8ff" stroke="#63b8ff" points="2309.09,-187.43 2311.95,-197.63 2316.08,-187.87 2309.09,-187.43"/>
</a>
</g>
</g>
<!-- Node32 -->
<g id="Node000032" class="node">
<title>Node32</title>
<g id="a_Node000032"><a xlink:href="libapa_2src_2misc_8c_source.html" target="_top" xlink:title=" ">
<polygon fill="white" stroke="#666666" points="2980.38,-97 2887.88,-97 2887.88,-66.5 2980.38,-66.5 2980.38,-97"/>
<text text-anchor="start" x="2895.88" y="-83.5" font-family="Helvetica,sans-Serif" font-size="10.00">iop/hdd/libapa/src</text>
<text text-anchor="middle" x="2934.12" y="-72.25" font-family="Helvetica,sans-Serif" font-size="10.00">/misc.c</text>
</a>
</g>
</g>
<!-- Node1&#45;&gt;Node32 -->
<g id="edge43_Node000001_Node000032" class="edge">
<title>Node1&#45;&gt;Node32</title>
<g id="a_edge43_Node000001_Node000032"><a xlink:title=" ">
<path fill="none" stroke="#63b8ff" d="M2323.84,-188.98C2334.2,-170.1 2351.25,-145.31 2374.12,-133 2473,-79.79 2767.28,-114.92 2878.12,-97 2881.2,-96.5 2884.34,-95.92 2887.5,-95.27"/>
<polygon fill="#63b8ff" stroke="#63b8ff" points="2320.83,-187.18 2319.33,-197.67 2327.04,-190.4 2320.83,-187.18"/>
</a>
</g>
</g>
<!-- Node33 -->
<g id="Node000033" class="node">
<title>Node33</title>
<g id="a_Node000033"><a xlink:href="password_8c_source.html" target="_top" xlink:title=" ">
<polygon fill="white" stroke="#666666" points="3091.38,-97 2998.88,-97 2998.88,-66.5 3091.38,-66.5 3091.38,-97"/>
<text text-anchor="start" x="3006.88" y="-83.5" font-family="Helvetica,sans-Serif" font-size="10.00">iop/hdd/libapa/src</text>
<text text-anchor="middle" x="3045.12" y="-72.25" font-family="Helvetica,sans-Serif" font-size="10.00">/password.c</text>
</a>
</g>
</g>
<!-- Node1&#45;&gt;Node33 -->
<g id="edge44_Node000001_Node000033" class="edge">
<title>Node1&#45;&gt;Node33</title>
<g id="a_edge44_Node000001_Node000033"><a xlink:title=" ">
<path fill="none" stroke="#63b8ff" d="M2337.62,-192.04C2365.67,-168.16 2406.86,-133.11 2407.12,-133 2527.31,-84.56 2861.11,-117.07 2989.12,-97 2992.2,-96.52 2995.35,-95.94 2998.51,-95.31"/>
<polygon fill="#63b8ff" stroke="#63b8ff" points="2335.54,-189.21 2330.2,-198.36 2340.08,-194.54 2335.54,-189.21"/>
</a>
</g>
</g>
<!-- Node34 -->
<g id="Node000034" class="node">
<title>Node34</title>
<g id="a_Node000034"><a xlink:href="libpfs_2src_2cache_8c_source.html" target="_top" xlink:title=" ">
<polygon fill="white" stroke="#666666" points="2909.25,-163.5 2819,-163.5 2819,-133 2909.25,-133 2909.25,-163.5"/>
<text text-anchor="start" x="2827" y="-150" font-family="Helvetica,sans-Serif" font-size="10.00">iop/hdd/libpfs/src</text>
<text text-anchor="middle" x="2864.12" y="-138.75" font-family="Helvetica,sans-Serif" font-size="10.00">/cache.c</text>
</a>
</g>
</g>
<!-- Node1&#45;&gt;Node34 -->
<g id="edge45_Node000001_Node000034" class="edge">
<title>Node1&#45;&gt;Node34</title>
<g id="a_edge45_Node000001_Node000034"><a xlink:title=" ">
<path fill="none" stroke="#63b8ff" d="M2377.06,-210.47C2472.55,-204.9 2656.22,-191.39 2810.12,-163.5 2812.89,-163 2815.72,-162.43 2818.57,-161.81"/>
<polygon fill="#63b8ff" stroke="#63b8ff" points="2376.87,-206.97 2367.09,-211.04 2377.27,-213.96 2376.87,-206.97"/>
</a>
</g>
</g>
<!-- Node35 -->
<g id="Node000035" class="node">
<title>Node35</title>
<g id="a_Node000035"><a xlink:href="libpfs_2src_2journal_8c_source.html" target="_top" xlink:title=" ">
<polygon fill="white" stroke="#666666" points="3017.25,-163.5 2927,-163.5 2927,-133 3017.25,-133 3017.25,-163.5"/>
<text text-anchor="start" x="2935" y="-150" font-family="Helvetica,sans-Serif" font-size="10.00">iop/hdd/libpfs/src</text>
<text text-anchor="middle" x="2972.12" y="-138.75" font-family="Helvetica,sans-Serif" font-size="10.00">/journal.c</text>
</a>
</g>
</g>
<!-- Node1&#45;&gt;Node35 -->
<g id="edge46_Node000001_Node000035" class="edge">
<title>Node1&#45;&gt;Node35</title>
<g id="a_edge46_Node000001_Node000035"><a xlink:title=" ">
<path fill="none" stroke="#63b8ff" d="M2376.97,-212.1C2488.37,-208.43 2722.93,-197.08 2918.12,-163.5 2920.9,-163.02 2923.73,-162.47 2926.58,-161.87"/>
<polygon fill="#63b8ff" stroke="#63b8ff" points="2377.01,-208.59 2367.13,-212.41 2377.23,-215.59 2377.01,-208.59"/>
</a>
</g>
</g>
<!-- Node36 -->
<g id="Node000036" class="node">
<title>Node36</title>
<g id="a_Node000036"><a xlink:href="libpfs_2src_2misc_8c_source.html" target="_top" xlink:title=" ">
<polygon fill="white" stroke="#666666" points="3125.25,-163.5 3035,-163.5 3035,-133 3125.25,-133 3125.25,-163.5"/>
<text text-anchor="start" x="3043" y="-150" font-family="Helvetica,sans-Serif" font-size="10.00">iop/hdd/libpfs/src</text>
<text text-anchor="middle" x="3080.12" y="-138.75" font-family="Helvetica,sans-Serif" font-size="10.00">/misc.c</text>
</a>
</g>
</g>
<!-- Node1&#45;&gt;Node36 -->
<g id="edge47_Node000001_Node000036" class="edge">
<title>Node1&#45;&gt;Node36</title>
<g id="a_edge47_Node000001_Node000036"><a xlink:title=" ">
<path fill="none" stroke="#63b8ff" d="M2376.68,-213.25C2502.49,-211.39 2788.95,-202.78 3026.12,-163.5 3028.9,-163.04 3031.74,-162.5 3034.59,-161.91"/>
<polygon fill="#63b8ff" stroke="#63b8ff" points="2376.83,-209.75 2366.88,-213.39 2376.93,-216.75 2376.83,-209.75"/>
</a>
</g>
</g>
<!-- Node37 -->
<g id="Node000037" class="node">
<title>Node37</title>
<g id="a_Node000037"><a xlink:href="super_8c_source.html" target="_top" xlink:title=" ">
<polygon fill="white" stroke="#666666" points="3233.25,-163.5 3143,-163.5 3143,-133 3233.25,-133 3233.25,-163.5"/>
<text text-anchor="start" x="3151" y="-150" font-family="Helvetica,sans-Serif" font-size="10.00">iop/hdd/libpfs/src</text>
<text text-anchor="middle" x="3188.12" y="-138.75" font-family="Helvetica,sans-Serif" font-size="10.00">/super.c</text>
</a>
</g>
</g>
<!-- Node1&#45;&gt;Node37 -->
<g id="edge48_Node000001_Node000037" class="edge">
<title>Node1&#45;&gt;Node37</title>
<g id="a_edge48_Node000001_Node000037"><a xlink:title=" ">
<path fill="none" stroke="#63b8ff" d="M2376.68,-214.11C2515.97,-213.93 2854.72,-208.46 3134.12,-163.5 3136.9,-163.05 3139.74,-162.52 3142.6,-161.94"/>
<polygon fill="#63b8ff" stroke="#63b8ff" points="2376.93,-210.61 2366.93,-214.11 2376.93,-217.61 2376.93,-210.61"/>
</a>
</g>
</g>
<!-- Node38 -->
<g id="Node000038" class="node">
<title>Node38</title>
<g id="a_Node000038"><a xlink:href="super_write_8c_source.html" target="_top" xlink:title=" ">
<polygon fill="white" stroke="#666666" points="3341.25,-163.5 3251,-163.5 3251,-133 3341.25,-133 3341.25,-163.5"/>
<text text-anchor="start" x="3259" y="-150" font-family="Helvetica,sans-Serif" font-size="10.00">iop/hdd/libpfs/src</text>
<text text-anchor="middle" x="3296.12" y="-138.75" font-family="Helvetica,sans-Serif" font-size="10.00">/superWrite.c</text>
</a>
</g>
</g>
<!-- Node1&#45;&gt;Node38 -->
<g id="edge49_Node000001_Node000038" class="edge">
<title>Node1&#45;&gt;Node38</title>
<g id="a_edge49_Node000001_Node000038"><a xlink:title=" ">
<path fill="none" stroke="#63b8ff" d="M2376.77,-211.97C2559.08,-206.69 3074.9,-189.8 3242.12,-163.5 3244.9,-163.06 3247.74,-162.54 3250.6,-161.96"/>
<polygon fill="#63b8ff" stroke="#63b8ff" points="2376.92,-208.47 2367.02,-212.25 2377.12,-215.47 2376.92,-208.47"/>
</a>
</g>
</g>
<!-- Node39 -->
<g id="Node000039" class="node">
<title>Node39</title>
<g id="a_Node000039"><a xlink:href="pfs__fio_8c_source.html" target="_top" xlink:title=" ">
<polygon fill="white" stroke="#666666" points="3456.62,-163.5 3359.62,-163.5 3359.62,-133 3456.62,-133 3456.62,-163.5"/>
<text text-anchor="start" x="3367.62" y="-150" font-family="Helvetica,sans-Serif" font-size="10.00">iop/hdd/pfs/src/pfs</text>
<text text-anchor="middle" x="3408.12" y="-138.75" font-family="Helvetica,sans-Serif" font-size="10.00">_fio.c</text>
</a>
</g>
</g>
<!-- Node1&#45;&gt;Node39 -->
<g id="edge50_Node000001_Node000039" class="edge">
<title>Node1&#45;&gt;Node39</title>
<g id="a_edge50_Node000001_Node000039"><a xlink:title=" ">
<path fill="none" stroke="#63b8ff" d="M2376.73,-212.25C2573.07,-207.44 3160.85,-191.07 3350.12,-163.5 3353.1,-163.07 3356.15,-162.55 3359.21,-161.97"/>
<polygon fill="#63b8ff" stroke="#63b8ff" points="2376.89,-208.75 2366.98,-212.49 2377.06,-215.74 2376.89,-208.75"/>
</a>
</g>
</g>
<!-- Node40 -->
<g id="Node000040" class="node">
<title>Node40</title>
<g id="a_Node000040"><a xlink:href="pfs__fioctl_8c_source.html" target="_top" xlink:title=" ">
<polygon fill="white" stroke="#666666" points="3571.62,-163.5 3474.62,-163.5 3474.62,-133 3571.62,-133 3571.62,-163.5"/>
<text text-anchor="start" x="3482.62" y="-150" font-family="Helvetica,sans-Serif" font-size="10.00">iop/hdd/pfs/src/pfs</text>
<text text-anchor="middle" x="3523.12" y="-138.75" font-family="Helvetica,sans-Serif" font-size="10.00">_fioctl.c</text>
</a>
</g>
</g>
<!-- Node1&#45;&gt;Node40 -->
<g id="edge51_Node000001_Node000040" class="edge">
<title>Node1&#45;&gt;Node40</title>
<g id="a_edge51_Node000001_Node000040"><a xlink:title=" ">
<path fill="none" stroke="#63b8ff" d="M2377.01,-212.64C2588.04,-208.78 3253.46,-194.39 3466.12,-163.5 3468.85,-163.1 3471.64,-162.63 3474.44,-162.11"/>
<polygon fill="#63b8ff" stroke="#63b8ff" points="2376.99,-209.14 2367.05,-212.82 2377.11,-216.14 2376.99,-209.14"/>
</a>
</g>
</g>
<!-- Node3 -->
<g id="Node000003" class="node">
<title>Node3</title>
<g id="a_Node000003"><a xlink:href="libhdd_8c_source.html" target="_top" xlink:title=" ">
<polygon fill="white" stroke="#666666" points="114.25,-91.38 0,-91.38 0,-72.12 114.25,-72.12 114.25,-91.38"/>
<text text-anchor="middle" x="57.12" y="-77.88" font-family="Helvetica,sans-Serif" font-size="10.00">ee/rpc/hdd/src/libhdd.c</text>
</a>
</g>
</g>
<!-- Node2&#45;&gt;Node3 -->
<g id="edge2_Node000002_Node000003" class="edge">
<title>Node2&#45;&gt;Node3</title>
<g id="a_edge2_Node000002_Node000003"><a xlink:title=" ">
<path fill="none" stroke="#63b8ff" d="M247.96,-131.99C199.53,-119.49 132.65,-102.24 92.28,-91.82"/>
<polygon fill="#63b8ff" stroke="#63b8ff" points="246.9,-135.33 257.46,-134.44 248.65,-128.55 246.9,-135.33"/>
</a>
</g>
</g>
<!-- Node5 -->
<g id="Node000005" class="node">
<title>Node5</title>
<g id="a_Node000005"><a xlink:href="aifdev9_8h_source.html" target="_top" xlink:title=" ">
<polygon fill="white" stroke="#666666" points="981.38,-97 870.88,-97 870.88,-66.5 981.38,-66.5 981.38,-97"/>
<text text-anchor="start" x="878.88" y="-83.5" font-family="Helvetica,sans-Serif" font-size="10.00">iop/dev9/dev9/include</text>
<text text-anchor="middle" x="926.12" y="-72.25" font-family="Helvetica,sans-Serif" font-size="10.00">/aifdev9.h</text>
</a>
</g>
</g>
<!-- Node4&#45;&gt;Node5 -->
<g id="edge4_Node000004_Node000005" class="edge">
<title>Node4&#45;&gt;Node5</title>
<g id="a_edge4_Node000004_Node000005"><a xlink:title=" ">
<path fill="none" stroke="#63b8ff" d="M793.01,-128.91C821.76,-118.94 856.84,-106.78 883.76,-97.44"/>
<polygon fill="#63b8ff" stroke="#63b8ff" points="792.06,-125.53 783.76,-132.12 794.36,-132.15 792.06,-125.53"/>
</a>
</g>
</g>
<!-- Node6 -->
<g id="Node000006" class="node">
<title>Node6</title>
<g id="a_Node000006"><a xlink:href="ps2dev9_8c.html" target="_top" xlink:title=" ">
<polygon fill="white" stroke="#666666" points="1140.38,-91.38 999.88,-91.38 999.88,-72.12 1140.38,-72.12 1140.38,-91.38"/>
<text text-anchor="middle" x="1070.12" y="-77.88" font-family="Helvetica,sans-Serif" font-size="10.00">iop/dev9/dev9/src/ps2dev9.c</text>
</a>
</g>
</g>
<!-- Node4&#45;&gt;Node6 -->
<g id="edge5_Node000004_Node000006" class="edge">
<title>Node4&#45;&gt;Node6</title>
<g id="a_edge5_Node000004_Node000006"><a xlink:title=" ">
<path fill="none" stroke="#63b8ff" d="M806.98,-134.18C871.39,-121.59 967.14,-102.88 1023.64,-91.84"/>
<polygon fill="#63b8ff" stroke="#63b8ff" points="806.36,-130.74 797.22,-136.09 807.7,-137.61 806.36,-130.74"/>
</a>
</g>
</g>
<!-- Node7 -->
<g id="Node000007" class="node">
<title>Node7</title>
<g id="a_Node000007"><a xlink:href="iop_2dev9_2extflash_2src_2irx__imports_8h_source.html" target="_top" xlink:title=" ">
<polygon fill="white" stroke="#666666" points="1263.75,-97 1158.5,-97 1158.5,-66.5 1263.75,-66.5 1263.75,-97"/>
<text text-anchor="start" x="1166.5" y="-83.5" font-family="Helvetica,sans-Serif" font-size="10.00">iop/dev9/extflash/src</text>
<text text-anchor="middle" x="1211.12" y="-72.25" font-family="Helvetica,sans-Serif" font-size="10.00">/irx_imports.h</text>
</a>
</g>
</g>
<!-- Node4&#45;&gt;Node7 -->
<g id="edge6_Node000004_Node000007" class="edge">
<title>Node4&#45;&gt;Node7</title>
<g id="a_edge6_Node000004_Node000007"><a xlink:title=" ">
<path fill="none" stroke="#63b8ff" d="M806.68,-141.21C887.88,-133.36 1029.17,-118.1 1149.12,-97 1152.06,-96.48 1155.07,-95.92 1158.1,-95.32"/>
<polygon fill="#63b8ff" stroke="#63b8ff" points="806.76,-137.69 797.14,-142.13 807.43,-144.66 806.76,-137.69"/>
</a>
</g>
</g>
<!-- Node8 -->
<g id="Node000008" class="node">
<title>Node8</title>
<g id="a_Node000008"><a xlink:href="dvrdrv_8c_source.html" target="_top" xlink:title=" ">
<polygon fill="white" stroke="#666666" points="231.75,-97 132.5,-97 132.5,-66.5 231.75,-66.5 231.75,-97"/>
<text text-anchor="start" x="140.5" y="-83.5" font-family="Helvetica,sans-Serif" font-size="10.00">iop/dev9/pvrdrv/src</text>
<text text-anchor="middle" x="182.12" y="-72.25" font-family="Helvetica,sans-Serif" font-size="10.00">/dvrdrv.c</text>
</a>
</g>
</g>
<!-- Node4&#45;&gt;Node8 -->
<g id="edge7_Node000004_Node000008" class="edge">
<title>Node4&#45;&gt;Node8</title>
<g id="a_edge7_Node000004_Node000008"><a xlink:title=" ">
<path fill="none" stroke="#63b8ff" d="M673.36,-143.54C577.11,-137.51 394,-123.5 240.12,-97 237.47,-96.54 234.75,-96.03 232.02,-95.48"/>
<polygon fill="#63b8ff" stroke="#63b8ff" points="672.95,-147.02 683.15,-144.14 673.38,-140.03 672.95,-147.02"/>
</a>
</g>
</g>
<!-- Node9 -->
<g id="Node000009" class="node">
<title>Node9</title>
<g id="a_Node000009"><a xlink:href="iop_2dev9_2pvrdrv_2src_2irx__imports_8h_source.html" target="_top" xlink:title=" ">
<polygon fill="white" stroke="#666666" points="348.75,-97 249.5,-97 249.5,-66.5 348.75,-66.5 348.75,-97"/>
<text text-anchor="start" x="257.5" y="-83.5" font-family="Helvetica,sans-Serif" font-size="10.00">iop/dev9/pvrdrv/src</text>
<text text-anchor="middle" x="299.12" y="-72.25" font-family="Helvetica,sans-Serif" font-size="10.00">/irx_imports.h</text>
</a>
</g>
</g>
<!-- Node4&#45;&gt;Node9 -->
<g id="edge8_Node000004_Node000009" class="edge">
<title>Node4&#45;&gt;Node9</title>
<g id="a_edge8_Node000004_Node000009"><a xlink:title=" ">
<path fill="none" stroke="#63b8ff" d="M673.12,-140.61C596.57,-132.53 467.75,-117.39 358.12,-97 355.12,-96.44 352.04,-95.83 348.94,-95.17"/>
<polygon fill="#63b8ff" stroke="#63b8ff" points="672.67,-144.09 682.98,-141.65 673.39,-137.12 672.67,-144.09"/>
</a>
</g>
</g>
<!-- Node10 -->
<g id="Node000010" class="node">
<title>Node10</title>
<g id="a_Node000010"><a xlink:href="iop_2network_2smap_2src_2include_2irx__imports_8h_source.html" target="_top" xlink:title=" ">
<polygon fill="white" stroke="#666666" points="477,-97 367.25,-97 367.25,-66.5 477,-66.5 477,-97"/>
<text text-anchor="start" x="375.25" y="-83.5" font-family="Helvetica,sans-Serif" font-size="10.00">iop/network/smap/src</text>
<text text-anchor="middle" x="422.12" y="-72.25" font-family="Helvetica,sans-Serif" font-size="10.00">/include/irx_imports.h</text>
</a>
</g>
</g>
<!-- Node4&#45;&gt;Node10 -->
<g id="edge9_Node000004_Node000010" class="edge">
<title>Node4&#45;&gt;Node10</title>
<g id="a_edge9_Node000004_Node000010"><a xlink:title=" ">
<path fill="none" stroke="#63b8ff" d="M673.3,-134.48C622.02,-124.57 549.52,-110.33 486.12,-97 483.23,-96.39 480.26,-95.76 477.26,-95.11"/>
<polygon fill="#63b8ff" stroke="#63b8ff" points="672.58,-137.91 683.07,-136.36 673.91,-131.03 672.58,-137.91"/>
</a>
</g>
</g>
<!-- Node11 -->
<g id="Node000011" class="node">
<title>Node11</title>
<g id="a_Node000011"><a xlink:href="smap_8c_source.html" target="_top" xlink:title=" ">
<polygon fill="white" stroke="#666666" points="605,-97 495.25,-97 495.25,-66.5 605,-66.5 605,-97"/>
<text text-anchor="start" x="503.25" y="-83.5" font-family="Helvetica,sans-Serif" font-size="10.00">iop/network/smap/src</text>
<text text-anchor="middle" x="550.12" y="-72.25" font-family="Helvetica,sans-Serif" font-size="10.00">/smap.c</text>
</a>
</g>
</g>
<!-- Node4&#45;&gt;Node11 -->
<g id="edge10_Node000004_Node000011" class="edge">
<title>Node4&#45;&gt;Node11</title>
<g id="a_edge10_Node000004_Node000011"><a xlink:title=" ">
<path fill="none" stroke="#63b8ff" d="M686.49,-129.04C657.05,-119.05 621.02,-106.82 593.4,-97.44"/>
<polygon fill="#63b8ff" stroke="#63b8ff" points="684.98,-132.23 695.58,-132.13 687.23,-125.6 684.98,-132.23"/>
</a>
</g>
</g>
<!-- Node12 -->
<g id="Node000012" class="node">
<title>Node12</title>
<g id="a_Node000012"><a xlink:href="xfer_8c_source.html" target="_top" xlink:title=" ">
<polygon fill="white" stroke="#666666" points="733,-97 623.25,-97 623.25,-66.5 733,-66.5 733,-97"/>
<text text-anchor="start" x="631.25" y="-83.5" font-family="Helvetica,sans-Serif" font-size="10.00">iop/network/smap/src</text>
<text text-anchor="middle" x="678.12" y="-72.25" font-family="Helvetica,sans-Serif" font-size="10.00">/xfer.c</text>
</a>
</g>
</g>
<!-- Node4&#45;&gt;Node12 -->
<g id="edge11_Node000004_Node000012" class="edge">
<title>Node4&#45;&gt;Node12</title>
<g id="a_edge11_Node000004_Node000012"><a xlink:title=" ">
<path fill="none" stroke="#63b8ff" d="M718.17,-124.41C709.51,-115.4 699.82,-105.32 692.14,-97.33"/>
<polygon fill="#63b8ff" stroke="#63b8ff" points="715.55,-126.74 725.01,-131.52 720.6,-121.89 715.55,-126.74"/>
</a>
</g>
</g>
<!-- Node13 -->
<g id="Node000013" class="node">
<title>Node13</title>
<g id="a_Node000013"><a xlink:href="iop_2network_2spduart_2src_2irx__imports_8h_source.html" target="_top" xlink:title=" ">
<polygon fill="white" stroke="#666666" points="852.88,-97 751.38,-97 751.38,-66.5 852.88,-66.5 852.88,-97"/>
<text text-anchor="start" x="759.38" y="-83.5" font-family="Helvetica,sans-Serif" font-size="10.00">iop/network/spduart</text>
<text text-anchor="middle" x="802.12" y="-72.25" font-family="Helvetica,sans-Serif" font-size="10.00">/src/irx_imports.h</text>
</a>
</g>
</g>
<!-- Node4&#45;&gt;Node13 -->
<g id="edge12_Node000004_Node000013" class="edge">
<title>Node4&#45;&gt;Node13</title>
<g id="a_edge12_Node000004_Node000013"><a xlink:title=" ">
<path fill="none" stroke="#63b8ff" d="M762.08,-124.41C770.74,-115.4 780.43,-105.32 788.11,-97.33"/>
<polygon fill="#63b8ff" stroke="#63b8ff" points="759.65,-121.89 755.24,-131.52 764.7,-126.74 759.65,-121.89"/>
</a>
</g>
</g>
<!-- Node14 -->
<g id="Node000014" class="node">
<title>Node14</title>
<g id="a_Node000014"><a xlink:href="spduart_8c_source.html" target="_top" xlink:title=" ">
<polygon fill="white" stroke="#666666" points="852.88,-30.5 751.38,-30.5 751.38,0 852.88,0 852.88,-30.5"/>
<text text-anchor="start" x="759.38" y="-17" font-family="Helvetica,sans-Serif" font-size="10.00">iop/network/spduart</text>
<text text-anchor="middle" x="802.12" y="-5.75" font-family="Helvetica,sans-Serif" font-size="10.00">/src/spduart.c</text>
</a>
</g>
</g>
<!-- Node13&#45;&gt;Node14 -->
<g id="edge13_Node000013_Node000014" class="edge">
<title>Node13&#45;&gt;Node14</title>
<g id="a_edge13_Node000013_Node000014"><a xlink:title=" ">
<path fill="none" stroke="#63b8ff" d="M802.12,-54.81C802.12,-46.64 802.12,-37.91 802.12,-30.83"/>
<polygon fill="#63b8ff" stroke="#63b8ff" points="798.63,-54.6 802.13,-64.6 805.63,-54.6 798.63,-54.6"/>
</a>
</g>
</g>
<!-- Node24&#45;&gt;Node15 -->
<g id="edge24_Node000024_Node000015" class="edge">
<title>Node24&#45;&gt;Node15</title>
<g id="a_edge24_Node000024_Node000015"><a xlink:title=" ">
<path fill="none" stroke="#63b8ff" d="M2048.6,-145.96C1921.68,-142.75 1636.43,-131.96 1399.12,-97 1390.25,-95.69 1380.77,-93.81 1371.93,-91.84"/>
<polygon fill="#63b8ff" stroke="#63b8ff" points="2048.43,-149.46 2058.51,-146.2 2048.6,-142.46 2048.43,-149.46"/>
</a>
</g>
</g>
<!-- Node24&#45;&gt;Node16 -->
<g id="edge26_Node000024_Node000016" class="edge">
<title>Node24&#45;&gt;Node16</title>
<g id="a_edge26_Node000024_Node000016"><a xlink:title=" ">
<path fill="none" stroke="#63b8ff" d="M2048.88,-144.89C1938.44,-140.24 1710.01,-127.54 1519.12,-97 1516.16,-96.53 1513.13,-95.99 1510.08,-95.4"/>
<polygon fill="#63b8ff" stroke="#63b8ff" points="2048.5,-148.38 2058.64,-145.29 2048.79,-141.38 2048.5,-148.38"/>
</a>
</g>
</g>
<!-- Node24&#45;&gt;Node20 -->
<g id="edge27_Node000024_Node000020" class="edge">
<title>Node24&#45;&gt;Node20</title>
<g id="a_edge27_Node000024_Node000020"><a xlink:title=" ">
<path fill="none" stroke="#63b8ff" d="M2048.44,-142C1958.88,-134.49 1794.92,-119.09 1656.12,-97 1647.07,-95.56 1637.4,-93.72 1628.28,-91.84"/>
<polygon fill="#63b8ff" stroke="#63b8ff" points="2048.02,-145.48 2058.27,-142.82 2048.6,-138.5 2048.02,-145.48"/>
</a>
</g>
</g>
<!-- Node24&#45;&gt;Node21 -->
<g id="edge29_Node000024_Node000021" class="edge">
<title>Node24&#45;&gt;Node21</title>
<g id="a_edge29_Node000024_Node000021"><a xlink:title=" ">
<path fill="none" stroke="#63b8ff" d="M2048.56,-138.47C1981.75,-129.34 1875.99,-114.01 1785.12,-97 1776.96,-95.47 1768.24,-93.65 1759.96,-91.84"/>
<polygon fill="#63b8ff" stroke="#63b8ff" points="2047.87,-141.91 2058.25,-139.79 2048.82,-134.97 2047.87,-141.91"/>
</a>
</g>
</g>
<!-- Node24&#45;&gt;Node22 -->
<g id="edge30_Node000024_Node000022" class="edge">
<title>Node24&#45;&gt;Node22</title>
<g id="a_edge30_Node000024_Node000022"><a xlink:title=" ">
<path fill="none" stroke="#63b8ff" d="M2048.72,-130.84C1998.64,-118.46 1931.81,-101.95 1890.93,-91.85"/>
<polygon fill="#63b8ff" stroke="#63b8ff" points="2047.76,-134.21 2058.3,-133.21 2049.44,-127.41 2047.76,-134.21"/>
</a>
</g>
</g>
<!-- Node24&#45;&gt;Node23 -->
<g id="edge32_Node000024_Node000023" class="edge">
<title>Node24&#45;&gt;Node23</title>
<g id="a_edge32_Node000024_Node000023"><a xlink:title=" ">
<path fill="none" stroke="#63b8ff" d="M2076.59,-127.53C2053.31,-115.6 2024.74,-100.98 2006.73,-91.76"/>
<polygon fill="#63b8ff" stroke="#63b8ff" points="2074.69,-130.48 2085.19,-131.92 2077.88,-124.25 2074.69,-130.48"/>
</a>
</g>
</g>
<!-- Node25 -->
<g id="Node000025" class="node">
<title>Node25</title>
<g id="a_Node000025"><a xlink:href="hdd__blkio_8c_source.html" target="_top" xlink:title=" ">
<polygon fill="white" stroke="#666666" points="2165.88,-97 2064.38,-97 2064.38,-66.5 2165.88,-66.5 2165.88,-97"/>
<text text-anchor="start" x="2072.38" y="-83.5" font-family="Helvetica,sans-Serif" font-size="10.00">iop/hdd/apa/src/hdd</text>
<text text-anchor="middle" x="2115.12" y="-72.25" font-family="Helvetica,sans-Serif" font-size="10.00">_blkio.c</text>
</a>
</g>
</g>
<!-- Node24&#45;&gt;Node25 -->
<g id="edge25_Node000024_Node000025" class="edge">
<title>Node24&#45;&gt;Node25</title>
<g id="a_edge25_Node000024_Node000025"><a xlink:title=" ">
<path fill="none" stroke="#63b8ff" d="M2115.12,-121.31C2115.12,-113.14 2115.12,-104.41 2115.12,-97.33"/>
<polygon fill="#63b8ff" stroke="#63b8ff" points="2111.63,-121.1 2115.13,-131.1 2118.63,-121.1 2111.63,-121.1"/>
</a>
</g>
</g>
<!-- Node26 -->
<g id="Node000026" class="node">
<title>Node26</title>
<g id="a_Node000026"><a xlink:href="misc__hdck_8c_source.html" target="_top" xlink:title=" ">
<polygon fill="white" stroke="#666666" points="2296.12,-97 2184.12,-97 2184.12,-66.5 2296.12,-66.5 2296.12,-97"/>
<text text-anchor="start" x="2192.12" y="-83.5" font-family="Helvetica,sans-Serif" font-size="10.00">iop/hdd/hdck/src/misc</text>
<text text-anchor="middle" x="2240.12" y="-72.25" font-family="Helvetica,sans-Serif" font-size="10.00">_hdck.c</text>
</a>
</g>
</g>
<!-- Node24&#45;&gt;Node26 -->
<g id="edge28_Node000024_Node000026" class="edge">
<title>Node24&#45;&gt;Node26</title>
<g id="a_edge28_Node000024_Node000026"><a xlink:title=" ">
<path fill="none" stroke="#63b8ff" d="M2153.54,-127.43C2172.37,-117.71 2194.63,-106.22 2211.87,-97.33"/>
<polygon fill="#63b8ff" stroke="#63b8ff" points="2152.12,-124.22 2144.83,-131.92 2155.33,-130.44 2152.12,-124.22"/>
</a>
</g>
</g>
<!-- Node27 -->
<g id="Node000027" class="node">
<title>Node27</title>
<g id="a_Node000027"><a xlink:href="misc__hdsk_8c_source.html" target="_top" xlink:title=" ">
<polygon fill="white" stroke="#666666" points="2426.12,-97 2314.12,-97 2314.12,-66.5 2426.12,-66.5 2426.12,-97"/>
<text text-anchor="start" x="2322.12" y="-83.5" font-family="Helvetica,sans-Serif" font-size="10.00">iop/hdd/hdsk/src/misc</text>
<text text-anchor="middle" x="2370.12" y="-72.25" font-family="Helvetica,sans-Serif" font-size="10.00">_hdsk.c</text>
</a>
</g>
</g>
<!-- Node24&#45;&gt;Node27 -->
<g id="edge31_Node000024_Node000027" class="edge">
<title>Node24&#45;&gt;Node27</title>
<g id="a_edge31_Node000024_Node000027"><a xlink:title=" ">
<path fill="none" stroke="#63b8ff" d="M2181.48,-130.47C2222.64,-120.06 2274.93,-106.83 2314.02,-96.94"/>
<polygon fill="#63b8ff" stroke="#63b8ff" points="2180.76,-127.04 2171.92,-132.88 2182.48,-133.82 2180.76,-127.04"/>
</a>
</g>
</g>
<!-- Node24&#45;&gt;Node28 -->
<g id="edge33_Node000024_Node000028" class="edge">
<title>Node24&#45;&gt;Node28</title>
<g id="a_edge33_Node000024_Node000028"><a xlink:title=" ">
<path fill="none" stroke="#63b8ff" d="M2181.6,-133.45C2182.45,-133.29 2183.29,-133.15 2184.12,-133 2295.14,-113.59 2324.63,-119.17 2435.12,-97 2437.83,-96.46 2440.61,-95.86 2443.4,-95.23"/>
<polygon fill="#63b8ff" stroke="#63b8ff" points="2181.11,-129.98 2171.92,-135.24 2182.39,-136.86 2181.11,-129.98"/>
</a>
</g>
</g>
<!-- Node24&#45;&gt;Node29 -->
<g id="edge34_Node000024_Node000029" class="edge">
<title>Node24&#45;&gt;Node29</title>
<g id="a_edge34_Node000024_Node000029"><a xlink:title=" ">
<path fill="none" stroke="#63b8ff" d="M2181.48,-138.19C2194.92,-136.42 2208.97,-134.61 2222.12,-133 2365.5,-115.46 2403.02,-122.87 2545.12,-97 2548.18,-96.44 2551.32,-95.81 2554.48,-95.13"/>
<polygon fill="#63b8ff" stroke="#63b8ff" points="2181.31,-134.68 2171.86,-139.47 2182.23,-141.62 2181.31,-134.68"/>
</a>
</g>
</g>
<!-- Node24&#45;&gt;Node30 -->
<g id="edge35_Node000024_Node000030" class="edge">
<title>Node24&#45;&gt;Node30</title>
<g id="a_edge35_Node000024_Node000030"><a xlink:title=" ">
<path fill="none" stroke="#63b8ff" d="M2181.62,-140.61C2206.28,-138.18 2234.47,-135.43 2260.12,-133 2436.07,-116.36 2481.94,-126.88 2656.12,-97 2659.19,-96.47 2662.33,-95.87 2665.49,-95.21"/>
<polygon fill="#63b8ff" stroke="#63b8ff" points="2181.31,-137.13 2171.71,-141.59 2182,-144.09 2181.31,-137.13"/>
</a>
</g>
</g>
<!-- Node24&#45;&gt;Node31 -->
<g id="edge36_Node000024_Node000031" class="edge">
<title>Node24&#45;&gt;Node31</title>
<g id="a_edge36_Node000024_Node000031"><a xlink:title=" ">
<path fill="none" stroke="#63b8ff" d="M2181.8,-142.04C2216.49,-139.33 2259.59,-135.98 2298.12,-133 2506.56,-116.89 2560.83,-130.9 2767.12,-97 2770.19,-96.5 2773.34,-95.9 2776.5,-95.25"/>
<polygon fill="#63b8ff" stroke="#63b8ff" points="2181.59,-138.55 2171.89,-142.81 2182.13,-145.53 2181.59,-138.55"/>
</a>
</g>
</g>
<!-- Node24&#45;&gt;Node32 -->
<g id="edge37_Node000024_Node000032" class="edge">
<title>Node24&#45;&gt;Node32</title>
<g id="a_edge37_Node000024_Node000032"><a xlink:title=" ">
<path fill="none" stroke="#63b8ff" d="M2181.6,-142.95C2365.75,-131.04 2869.56,-98.36 2878.12,-97 2881.2,-96.51 2884.35,-95.93 2887.51,-95.29"/>
<polygon fill="#63b8ff" stroke="#63b8ff" points="2181.47,-139.45 2171.71,-143.59 2181.92,-146.44 2181.47,-139.45"/>
</a>
</g>
</g>
<!-- Node24&#45;&gt;Node33 -->
<g id="edge38_Node000024_Node000033" class="edge">
<title>Node24&#45;&gt;Node33</title>
<g id="a_edge38_Node000024_Node000033"><a xlink:title=" ">
<path fill="none" stroke="#63b8ff" d="M2181.57,-143.6C2382.17,-132.56 2969.21,-100.08 2989.12,-97 2992.2,-96.53 2995.35,-95.96 2998.51,-95.32"/>
<polygon fill="#63b8ff" stroke="#63b8ff" points="2181.63,-140.09 2171.84,-144.14 2182.02,-147.08 2181.63,-140.09"/>
</a>
</g>
</g>
</g>
</svg>

<g id="navigator" transform="translate(0 0)" fill="#404254">
  <rect fill="#f2f5e9" fill-opacity="0.5" stroke="#606060" stroke-width=".5" x="0" y="0" width="60" height="60"/>
  <use id="zoomplus" xlink:href="#zoomPlus" x="17" y="9" onmousedown="handleZoom(evt,'in')"/>
  <use id="zoomminus" xlink:href="#zoomMin" x="42" y="9" onmousedown="handleZoom(evt,'out')"/>
  <use id="reset" xlink:href="#resetDef" x="30" y="36" onmousedown="handleReset()"/>
   <use id="arrowup" xlink:href="#arrowUp" x="0" y="0" onmousedown="handlePan(0,-1)"/>
  <use id="arrowright" xlink:href="#arrowRight" x="0" y="0" onmousedown="handlePan(1,0)"/>
  <use id="arrowdown" xlink:href="#arrowDown" x="0" y="0" onmousedown="handlePan(0,1)"/>
  <use id="arrowleft" xlink:href="#arrowLeft" x="0" y="0" onmousedown="handlePan(-1,0)"/>
</g>
<svg viewBox="0 0 15 15" width="100%" height="30px" preserveAspectRatio="xMaxYMin meet">
 <g id="arrow_out" transform="scale(0.3 0.3)">
  <a xlink:href="hdd-ioctl_8h__dep__incl_org.svg" target="_base">
   <rect id="button" ry="5" rx="5" y="6" x="6" height="38" width="38"
        fill="#f2f5e9" fill-opacity="0.5" stroke="#606060" stroke-width="1.0"/>
   <path id="arrow"
     d="M 11.500037,31.436501 C 11.940474,20.09759 22.043105,11.32322 32.158766,21.979434 L 37.068811,17.246167 C 37.068811,17.246167 37.088388,32 37.088388,32 L 22.160133,31.978069 C 22.160133,31.978069 26.997745,27.140456 26.997745,27.140456 C 18.528582,18.264221 13.291696,25.230495 11.500037,31.436501 z"
     style="fill:#404040;"/>
  </a>
 </g>
</svg>

<style type='text/css'>
<![CDATA[
[data-mouse-over-selected='false'] { opacity: 0.7; }
[data-mouse-over-selected='true']  { opacity: 1.0; }
]]>
</style>
<script type="application/ecmascript"><![CDATA[
document.addEventListener('DOMContentLoaded', (event) => {
  highlightEdges();
  highlightAdjacentNodes();
});
]]></script>
</svg>
