<?xml version="1.0" encoding="UTF-8" standalone="no"?>
<!DOCTYPE svg PUBLIC "-//W3C//DTD SVG 1.1//EN"
 "http://www.w3.org/Graphics/SVG/1.1/DTD/svg11.dtd">
<!-- Generated by graphviz version 9.0.0 (20230911.1827)
 -->
<!-- Title: common/include/speedregs.h Pages: 1 -->
<svg width="1655pt" height="160pt"
 viewBox="0.00 0.00 1654.62 160.25" xmlns="http://www.w3.org/2000/svg" xmlns:xlink="http://www.w3.org/1999/xlink">
<g id="graph0" class="graph" transform="scale(1 1) rotate(0) translate(4 156.25)">
<title>common/include/speedregs.h</title>
<!-- Node1 -->
<g id="Node000001" class="node">
<title>Node1</title>
<g id="a_Node000001"><a xlink:title=" ">
<polygon fill="#999999" stroke="#666666" points="912.25,-152.25 769.5,-152.25 769.5,-133 912.25,-133 912.25,-152.25"/>
<text text-anchor="middle" x="840.88" y="-138.75" font-family="Helvetica,sans-Serif" font-size="10.00">common/include/speedregs.h</text>
</a>
</g>
</g>
<!-- Node2 -->
<g id="Node000002" class="node">
<title>Node2</title>
<g id="a_Node000002"><a xlink:href="atahw_8h.html" target="_top" xlink:title=" ">
<polygon fill="white" stroke="#666666" points="251.88,-91.38 127.88,-91.38 127.88,-72.12 251.88,-72.12 251.88,-91.38"/>
<text text-anchor="middle" x="189.88" y="-77.88" font-family="Helvetica,sans-Serif" font-size="10.00">common/include/atahw.h</text>
</a>
</g>
</g>
<!-- Node1&#45;&gt;Node2 -->
<g id="edge1_Node000001_Node000002" class="edge">
<title>Node1&#45;&gt;Node2</title>
<g id="a_edge1_Node000001_Node000002"><a xlink:title=" ">
<path fill="none" stroke="#63b8ff" d="M757.88,-134.67C657.11,-126.15 481.97,-111.11 331.88,-97 305.73,-94.54 276.89,-91.68 252.07,-89.16"/>
<polygon fill="#63b8ff" stroke="#63b8ff" points="757.43,-138.15 767.69,-135.5 758.02,-131.17 757.43,-138.15"/>
</a>
</g>
</g>
<!-- Node5 -->
<g id="Node000005" class="node">
<title>Node5</title>
<g id="a_Node000005"><a xlink:href="smapregs_8h.html" target="_top" xlink:title=" ">
<polygon fill="white" stroke="#666666" points="514.12,-91.38 373.62,-91.38 373.62,-72.12 514.12,-72.12 514.12,-91.38"/>
<text text-anchor="middle" x="443.88" y="-77.88" font-family="Helvetica,sans-Serif" font-size="10.00">common/include/smapregs.h</text>
</a>
</g>
</g>
<!-- Node1&#45;&gt;Node5 -->
<g id="edge4_Node000001_Node000005" class="edge">
<title>Node1&#45;&gt;Node5</title>
<g id="a_edge4_Node000001_Node000005"><a xlink:title=" ">
<path fill="none" stroke="#63b8ff" d="M762.23,-131C698.88,-122.3 607.56,-109.44 527.88,-97 517.64,-95.4 506.73,-93.61 496.27,-91.86"/>
<polygon fill="#63b8ff" stroke="#63b8ff" points="761.45,-134.42 771.83,-132.31 762.4,-127.49 761.45,-134.42"/>
</a>
</g>
</g>
<!-- Node6 -->
<g id="Node000006" class="node">
<title>Node6</title>
<g id="a_Node000006"><a xlink:href="ps2dev9_8c.html" target="_top" xlink:title=" ">
<polygon fill="white" stroke="#666666" points="416.12,-24.88 275.62,-24.88 275.62,-5.63 416.12,-5.63 416.12,-24.88"/>
<text text-anchor="middle" x="345.88" y="-11.38" font-family="Helvetica,sans-Serif" font-size="10.00">iop/dev9/dev9/src/ps2dev9.c</text>
</a>
</g>
</g>
<!-- Node1&#45;&gt;Node6 -->
<g id="edge8_Node000001_Node000006" class="edge">
<title>Node1&#45;&gt;Node6</title>
<g id="a_edge8_Node000001_Node000006"><a xlink:title=" ">
<path fill="none" stroke="#63b8ff" d="M757.85,-139.04C629.31,-134.28 393.81,-122.2 364.88,-97 343.92,-78.74 343.76,-42.12 344.95,-25.2"/>
<polygon fill="#63b8ff" stroke="#63b8ff" points="757.56,-142.53 767.68,-139.4 757.81,-135.54 757.56,-142.53"/>
</a>
</g>
</g>
<!-- Node7 -->
<g id="Node000007" class="node">
<title>Node7</title>
<g id="a_Node000007"><a xlink:href="smap_8c_source.html" target="_top" xlink:title=" ">
<polygon fill="white" stroke="#666666" points="543.75,-30.5 434,-30.5 434,0 543.75,0 543.75,-30.5"/>
<text text-anchor="start" x="442" y="-17" font-family="Helvetica,sans-Serif" font-size="10.00">iop/network/smap/src</text>
<text text-anchor="middle" x="488.88" y="-5.75" font-family="Helvetica,sans-Serif" font-size="10.00">/smap.c</text>
</a>
</g>
</g>
<!-- Node1&#45;&gt;Node7 -->
<g id="edge17_Node000001_Node000007" class="edge">
<title>Node1&#45;&gt;Node7</title>
<g id="a_edge17_Node000001_Node000007"><a xlink:title=" ">
<path fill="none" stroke="#63b8ff" d="M757.9,-137.79C706.66,-132.85 640.66,-121.77 586.88,-97 552.03,-80.95 519.28,-49.42 501.87,-30.86"/>
<polygon fill="#63b8ff" stroke="#63b8ff" points="757.48,-141.26 767.75,-138.67 758.1,-134.29 757.48,-141.26"/>
</a>
</g>
</g>
<!-- Node8 -->
<g id="Node000008" class="node">
<title>Node8</title>
<g id="a_Node000008"><a xlink:href="xfer_8c_source.html" target="_top" xlink:title=" ">
<polygon fill="white" stroke="#666666" points="671.75,-30.5 562,-30.5 562,0 671.75,0 671.75,-30.5"/>
<text text-anchor="start" x="570" y="-17" font-family="Helvetica,sans-Serif" font-size="10.00">iop/network/smap/src</text>
<text text-anchor="middle" x="616.88" y="-5.75" font-family="Helvetica,sans-Serif" font-size="10.00">/xfer.c</text>
</a>
</g>
</g>
<!-- Node1&#45;&gt;Node8 -->
<g id="edge18_Node000001_Node000008" class="edge">
<title>Node1&#45;&gt;Node8</title>
<g id="a_edge18_Node000001_Node000008"><a xlink:title=" ">
<path fill="none" stroke="#63b8ff" d="M757.66,-137.38C695.88,-132.28 618.98,-121.15 598.88,-97 583.16,-78.12 596.47,-48.44 607.04,-30.8"/>
<polygon fill="#63b8ff" stroke="#63b8ff" points="757.26,-140.86 767.5,-138.15 757.8,-133.88 757.26,-140.86"/>
</a>
</g>
</g>
<!-- Node9 -->
<g id="Node000009" class="node">
<title>Node9</title>
<g id="a_Node000009"><a xlink:href="extflash_8c_source.html" target="_top" xlink:title=" ">
<polygon fill="white" stroke="#666666" points="713.5,-97 608.25,-97 608.25,-66.5 713.5,-66.5 713.5,-97"/>
<text text-anchor="start" x="616.25" y="-83.5" font-family="Helvetica,sans-Serif" font-size="10.00">iop/dev9/extflash/src</text>
<text text-anchor="middle" x="660.88" y="-72.25" font-family="Helvetica,sans-Serif" font-size="10.00">/extflash.c</text>
</a>
</g>
</g>
<!-- Node1&#45;&gt;Node9 -->
<g id="edge9_Node000001_Node000009" class="edge">
<title>Node1&#45;&gt;Node9</title>
<g id="a_edge9_Node000001_Node000009"><a xlink:title=" ">
<path fill="none" stroke="#63b8ff" d="M802.46,-129.06C774.14,-119.8 735.55,-107.17 705.8,-97.44"/>
<polygon fill="#63b8ff" stroke="#63b8ff" points="801.11,-132.3 811.71,-132.08 803.29,-125.65 801.11,-132.3"/>
</a>
</g>
</g>
<!-- Node10 -->
<g id="Node000010" class="node">
<title>Node10</title>
<g id="a_Node000010"><a xlink:href="dvrdrv_8c_source.html" target="_top" xlink:title=" ">
<polygon fill="white" stroke="#666666" points="830.5,-97 731.25,-97 731.25,-66.5 830.5,-66.5 830.5,-97"/>
<text text-anchor="start" x="739.25" y="-83.5" font-family="Helvetica,sans-Serif" font-size="10.00">iop/dev9/pvrdrv/src</text>
<text text-anchor="middle" x="780.88" y="-72.25" font-family="Helvetica,sans-Serif" font-size="10.00">/dvrdrv.c</text>
</a>
</g>
</g>
<!-- Node1&#45;&gt;Node10 -->
<g id="edge10_Node000001_Node000010" class="edge">
<title>Node1&#45;&gt;Node10</title>
<g id="a_edge10_Node000001_Node000010"><a xlink:title=" ">
<path fill="none" stroke="#63b8ff" d="M823.68,-124.75C814.83,-116.07 804.16,-105.6 795.68,-97.28"/>
<polygon fill="#63b8ff" stroke="#63b8ff" points="821.09,-127.12 830.68,-131.62 826,-122.12 821.09,-127.12"/>
</a>
</g>
</g>
<!-- Node11 -->
<g id="Node000011" class="node">
<title>Node11</title>
<g id="a_Node000011"><a xlink:href="dvr_8c_source.html" target="_top" xlink:title=" ">
<polygon fill="white" stroke="#666666" points="955.62,-91.38 848.12,-91.38 848.12,-72.12 955.62,-72.12 955.62,-91.38"/>
<text text-anchor="middle" x="901.88" y="-77.88" font-family="Helvetica,sans-Serif" font-size="10.00">iop/dvrp/dvr/src/dvr.c</text>
</a>
</g>
</g>
<!-- Node1&#45;&gt;Node11 -->
<g id="edge11_Node000001_Node000011" class="edge">
<title>Node1&#45;&gt;Node11</title>
<g id="a_edge11_Node000001_Node000011"><a xlink:title=" ">
<path fill="none" stroke="#63b8ff" d="M858.31,-124.8C869.44,-114.05 883.44,-100.54 892.52,-91.78"/>
<polygon fill="#63b8ff" stroke="#63b8ff" points="855.99,-122.17 851.23,-131.63 860.85,-127.21 855.99,-122.17"/>
</a>
</g>
</g>
<!-- Node12 -->
<g id="Node000012" class="node">
<title>Node12</title>
<g id="a_Node000012"><a xlink:href="dvrav_8c_source.html" target="_top" xlink:title=" ">
<polygon fill="white" stroke="#666666" points="1067.88,-97 973.88,-97 973.88,-66.5 1067.88,-66.5 1067.88,-97"/>
<text text-anchor="start" x="981.88" y="-83.5" font-family="Helvetica,sans-Serif" font-size="10.00">iop/dvrp/dvrav/src</text>
<text text-anchor="middle" x="1020.88" y="-72.25" font-family="Helvetica,sans-Serif" font-size="10.00">/dvrav.c</text>
</a>
</g>
</g>
<!-- Node1&#45;&gt;Node12 -->
<g id="edge12_Node000001_Node000012" class="edge">
<title>Node1&#45;&gt;Node12</title>
<g id="a_edge12_Node000001_Node000012"><a xlink:title=" ">
<path fill="none" stroke="#63b8ff" d="M879.29,-129.06C907.61,-119.8 946.2,-107.17 975.95,-97.44"/>
<polygon fill="#63b8ff" stroke="#63b8ff" points="878.46,-125.65 870.04,-132.08 880.64,-132.3 878.46,-125.65"/>
</a>
</g>
</g>
<!-- Node13 -->
<g id="Node000013" class="node">
<title>Node13</title>
<g id="a_Node000013"><a xlink:href="dvrdv_8c_source.html" target="_top" xlink:title=" ">
<polygon fill="white" stroke="#666666" points="1179.88,-97 1085.88,-97 1085.88,-66.5 1179.88,-66.5 1179.88,-97"/>
<text text-anchor="start" x="1093.88" y="-83.5" font-family="Helvetica,sans-Serif" font-size="10.00">iop/dvrp/dvrdv/src</text>
<text text-anchor="middle" x="1132.88" y="-72.25" font-family="Helvetica,sans-Serif" font-size="10.00">/dvrdv.c</text>
</a>
</g>
</g>
<!-- Node1&#45;&gt;Node13 -->
<g id="edge13_Node000001_Node000013" class="edge">
<title>Node1&#45;&gt;Node13</title>
<g id="a_edge13_Node000001_Node000013"><a xlink:title=" ">
<path fill="none" stroke="#63b8ff" d="M905.09,-130.6C952.68,-122.16 1019.02,-109.82 1076.88,-97 1079.72,-96.37 1082.63,-95.7 1085.57,-95.01"/>
<polygon fill="#63b8ff" stroke="#63b8ff" points="904.76,-127.1 895.52,-132.29 905.97,-134 904.76,-127.1"/>
</a>
</g>
</g>
<!-- Node14 -->
<g id="Node000014" class="node">
<title>Node14</title>
<g id="a_Node000014"><a xlink:href="dvrfile_8c_source.html" target="_top" xlink:title=" ">
<polygon fill="white" stroke="#666666" points="1293.62,-97 1198.12,-97 1198.12,-66.5 1293.62,-66.5 1293.62,-97"/>
<text text-anchor="start" x="1206.12" y="-83.5" font-family="Helvetica,sans-Serif" font-size="10.00">iop/dvrp/dvrfile/src</text>
<text text-anchor="middle" x="1245.88" y="-72.25" font-family="Helvetica,sans-Serif" font-size="10.00">/dvrfile.c</text>
</a>
</g>
</g>
<!-- Node1&#45;&gt;Node14 -->
<g id="edge14_Node000001_Node000014" class="edge">
<title>Node1&#45;&gt;Node14</title>
<g id="a_edge14_Node000001_Node000014"><a xlink:title=" ">
<path fill="none" stroke="#63b8ff" d="M923.64,-133.78C994.42,-126.41 1098.82,-113.97 1188.88,-97 1191.78,-96.45 1194.76,-95.85 1197.76,-95.2"/>
<polygon fill="#63b8ff" stroke="#63b8ff" points="923.67,-130.26 914.08,-134.76 924.39,-137.22 923.67,-130.26"/>
</a>
</g>
</g>
<!-- Node15 -->
<g id="Node000015" class="node">
<title>Node15</title>
<g id="a_Node000015"><a xlink:href="dvripl_8c_source.html" target="_top" xlink:title=" ">
<polygon fill="white" stroke="#666666" points="1404.5,-97 1311.25,-97 1311.25,-66.5 1404.5,-66.5 1404.5,-97"/>
<text text-anchor="start" x="1319.25" y="-83.5" font-family="Helvetica,sans-Serif" font-size="10.00">iop/dvrp/dvripl/src</text>
<text text-anchor="middle" x="1357.88" y="-72.25" font-family="Helvetica,sans-Serif" font-size="10.00">/dvripl.c</text>
</a>
</g>
</g>
<!-- Node1&#45;&gt;Node15 -->
<g id="edge15_Node000001_Node000015" class="edge">
<title>Node1&#45;&gt;Node15</title>
<g id="a_edge15_Node000001_Node000015"><a xlink:title=" ">
<path fill="none" stroke="#63b8ff" d="M923.87,-137.55C1016.76,-132.07 1171.47,-120.22 1302.88,-97 1305.5,-96.54 1308.18,-96.01 1310.88,-95.45"/>
<polygon fill="#63b8ff" stroke="#63b8ff" points="923.87,-134.04 914.09,-138.11 924.27,-141.03 923.87,-134.04"/>
</a>
</g>
</g>
<!-- Node16 -->
<g id="Node000016" class="node">
<title>Node16</title>
<g id="a_Node000016"><a xlink:href="dvrmisc_8c_source.html" target="_top" xlink:title=" ">
<polygon fill="white" stroke="#666666" points="1527.12,-97 1422.62,-97 1422.62,-66.5 1527.12,-66.5 1527.12,-97"/>
<text text-anchor="start" x="1430.62" y="-83.5" font-family="Helvetica,sans-Serif" font-size="10.00">iop/dvrp/dvrmisc/src</text>
<text text-anchor="middle" x="1474.88" y="-72.25" font-family="Helvetica,sans-Serif" font-size="10.00">/dvrmisc.c</text>
</a>
</g>
</g>
<!-- Node1&#45;&gt;Node16 -->
<g id="edge16_Node000001_Node000016" class="edge">
<title>Node1&#45;&gt;Node16</title>
<g id="a_edge16_Node000001_Node000016"><a xlink:title=" ">
<path fill="none" stroke="#63b8ff" d="M923.93,-139.11C1035.81,-134.82 1240.85,-123.79 1413.88,-97 1416.67,-96.57 1419.53,-96.08 1422.4,-95.54"/>
<polygon fill="#63b8ff" stroke="#63b8ff" points="924.12,-135.6 914.25,-139.47 924.38,-142.59 924.12,-135.6"/>
</a>
</g>
</g>
<!-- Node17 -->
<g id="Node000017" class="node">
<title>Node17</title>
<g id="a_Node000017"><a xlink:href="spduart_8c_source.html" target="_top" xlink:title=" ">
<polygon fill="white" stroke="#666666" points="1646.62,-97 1545.12,-97 1545.12,-66.5 1646.62,-66.5 1646.62,-97"/>
<text text-anchor="start" x="1553.12" y="-83.5" font-family="Helvetica,sans-Serif" font-size="10.00">iop/network/spduart</text>
<text text-anchor="middle" x="1595.88" y="-72.25" font-family="Helvetica,sans-Serif" font-size="10.00">/src/spduart.c</text>
</a>
</g>
</g>
<!-- Node1&#45;&gt;Node17 -->
<g id="edge19_Node000001_Node000017" class="edge">
<title>Node1&#45;&gt;Node17</title>
<g id="a_edge19_Node000001_Node000017"><a xlink:title=" ">
<path fill="none" stroke="#63b8ff" d="M924.07,-140.82C1054.96,-138.52 1316.64,-129.83 1535.88,-97 1538.84,-96.56 1541.87,-96.04 1544.93,-95.47"/>
<polygon fill="#63b8ff" stroke="#63b8ff" points="924.04,-137.32 914.1,-140.98 924.15,-144.31 924.04,-137.32"/>
</a>
</g>
</g>
<!-- Node3 -->
<g id="Node000003" class="node">
<title>Node3</title>
<g id="a_Node000003"><a xlink:href="ps2atad_8c.html" target="_top" xlink:title=" ">
<polygon fill="white" stroke="#666666" points="257.88,-24.88 121.88,-24.88 121.88,-5.63 257.88,-5.63 257.88,-24.88"/>
<text text-anchor="middle" x="189.88" y="-11.38" font-family="Helvetica,sans-Serif" font-size="10.00">iop/dev9/atad/src/ps2atad.c</text>
</a>
</g>
</g>
<!-- Node2&#45;&gt;Node3 -->
<g id="edge2_Node000002_Node000003" class="edge">
<title>Node2&#45;&gt;Node3</title>
<g id="a_edge2_Node000002_Node000003"><a xlink:title=" ">
<path fill="none" stroke="#63b8ff" d="M189.88,-60.27C189.88,-48.44 189.88,-34.16 189.88,-25.14"/>
<polygon fill="#63b8ff" stroke="#63b8ff" points="186.38,-60.27 189.88,-70.27 193.38,-60.27 186.38,-60.27"/>
</a>
</g>
</g>
<!-- Node4 -->
<g id="Node000004" class="node">
<title>Node4</title>
<g id="a_Node000004"><a xlink:href="hdproatad_8c_source.html" target="_top" xlink:title=" ">
<polygon fill="white" stroke="#666666" points="103.75,-30.5 0,-30.5 0,0 103.75,0 103.75,-30.5"/>
<text text-anchor="start" x="8" y="-17" font-family="Helvetica,sans-Serif" font-size="10.00">iop/dev9/hdpro_atad</text>
<text text-anchor="middle" x="51.88" y="-5.75" font-family="Helvetica,sans-Serif" font-size="10.00">/src/hdproatad.c</text>
</a>
</g>
</g>
<!-- Node2&#45;&gt;Node4 -->
<g id="edge3_Node000002_Node000004" class="edge">
<title>Node2&#45;&gt;Node4</title>
<g id="a_edge3_Node000002_Node000004"><a xlink:title=" ">
<path fill="none" stroke="#63b8ff" d="M160.01,-66.79C137.34,-56.2 106.25,-41.66 83.22,-30.9"/>
<polygon fill="#63b8ff" stroke="#63b8ff" points="158.48,-69.94 169.02,-71 161.45,-63.6 158.48,-69.94"/>
</a>
</g>
</g>
<!-- Node5&#45;&gt;Node6 -->
<g id="edge5_Node000005_Node000006" class="edge">
<title>Node5&#45;&gt;Node6</title>
<g id="a_edge5_Node000005_Node000006"><a xlink:title=" ">
<path fill="none" stroke="#63b8ff" d="M420.83,-65.58C401.85,-53.09 375.57,-35.8 359.7,-25.35"/>
<polygon fill="#63b8ff" stroke="#63b8ff" points="418.71,-68.38 428.98,-70.95 422.56,-62.53 418.71,-68.38"/>
</a>
</g>
</g>
<!-- Node5&#45;&gt;Node7 -->
<g id="edge6_Node000005_Node000007" class="edge">
<title>Node5&#45;&gt;Node7</title>
<g id="a_edge6_Node000005_Node000007"><a xlink:title=" ">
<path fill="none" stroke="#63b8ff" d="M456.52,-62.62C463.59,-52.49 472.28,-40.04 478.87,-30.59"/>
<polygon fill="#63b8ff" stroke="#63b8ff" points="453.85,-60.34 451,-70.54 459.59,-64.34 453.85,-60.34"/>
</a>
</g>
</g>
<!-- Node5&#45;&gt;Node8 -->
<g id="edge7_Node000005_Node000008" class="edge">
<title>Node5&#45;&gt;Node8</title>
<g id="a_edge7_Node000005_Node000008"><a xlink:title=" ">
<path fill="none" stroke="#63b8ff" d="M479.01,-67.65C507.6,-56.99 547.93,-41.96 577.58,-30.9"/>
<polygon fill="#63b8ff" stroke="#63b8ff" points="477.86,-64.34 469.71,-71.12 480.31,-70.9 477.86,-64.34"/>
</a>
</g>
</g>
</g>
</svg>
